<svg width="151" height="43" viewBox="0 0 151 43" fill="none" xmlns="http://www.w3.org/2000/svg">
<mask id="path-1-inside-1_1_4816" fill="white">
<path fill-rule="evenodd" clip-rule="evenodd" d="M0.0448284 12.6941C-0.329718 5.79756 5.16153 0 12.0683 0H137.944C144.765 0 150.224 5.66033 149.978 12.4768L149.81 17.101C149.799 17.4126 149.643 17.7011 149.388 17.8812L146.748 19.7488C146.185 20.1473 146.185 20.9832 146.748 21.3817L149.346 23.2196C149.601 23.4 149.757 23.6891 149.768 24.0012L149.996 30.5401C150.233 37.3503 144.776 43 137.962 43H12.0415C5.14474 43 -0.342796 37.2185 0.0167094 30.3312L0.35126 23.9219C0.367223 23.6161 0.522421 23.3345 0.772426 23.1576L3.2833 21.3816C3.84666 20.9831 3.84667 20.1473 3.2833 19.7488L0.708718 17.9277C0.459317 17.7513 0.30423 17.4705 0.287664 17.1655L0.0448284 12.6941Z"/>
</mask>
<path fill-rule="evenodd" clip-rule="evenodd" d="M0.0448284 12.6941C-0.329718 5.79756 5.16153 0 12.0683 0H137.944C144.765 0 150.224 5.66033 149.978 12.4768L149.81 17.101C149.799 17.4126 149.643 17.7011 149.388 17.8812L146.748 19.7488C146.185 20.1473 146.185 20.9832 146.748 21.3817L149.346 23.2196C149.601 23.4 149.757 23.6891 149.768 24.0012L149.996 30.5401C150.233 37.3503 144.776 43 137.962 43H12.0415C5.14474 43 -0.342796 37.2185 0.0167094 30.3312L0.35126 23.9219C0.367223 23.6161 0.522421 23.3345 0.772426 23.1576L3.2833 21.3816C3.84666 20.9831 3.84667 20.1473 3.2833 19.7488L0.708718 17.9277C0.459317 17.7513 0.30423 17.4705 0.287664 17.1655L0.0448284 12.6941Z" fill="url(#paint0_linear_1_4816)" fill-opacity="0.2"/>
<path fill-rule="evenodd" clip-rule="evenodd" d="M0.0448284 12.6941C-0.329718 5.79756 5.16153 0 12.0683 0H137.944C144.765 0 150.224 5.66033 149.978 12.4768L149.81 17.101C149.799 17.4126 149.643 17.7011 149.388 17.8812L146.748 19.7488C146.185 20.1473 146.185 20.9832 146.748 21.3817L149.346 23.2196C149.601 23.4 149.757 23.6891 149.768 24.0012L149.996 30.5401C150.233 37.3503 144.776 43 137.962 43H12.0415C5.14474 43 -0.342796 37.2185 0.0167094 30.3312L0.35126 23.9219C0.367223 23.6161 0.522421 23.3345 0.772426 23.1576L3.2833 21.3816C3.84666 20.9831 3.84667 20.1473 3.2833 19.7488L0.708718 17.9277C0.459317 17.7513 0.30423 17.4705 0.287664 17.1655L0.0448284 12.6941Z" fill="url(#paint1_linear_1_4816)"/>
<path d="M0.0448284 12.6941L-0.9537 12.7484L0.0448284 12.6941ZM149.978 12.4768L148.978 12.4407L148.978 12.4407L149.978 12.4768ZM149.996 30.5401L148.996 30.5749L148.996 30.5749L149.996 30.5401ZM0.0167094 30.3312L1.01535 30.3833L0.0167094 30.3312ZM0.287664 17.1655L-0.710864 17.2197L0.287664 17.1655ZM0.772426 23.1576L0.194951 22.3412L0.772426 23.1576ZM149.346 23.2196L149.924 22.4032L149.346 23.2196ZM149.768 24.0012L148.769 24.036L149.768 24.0012ZM146.748 19.7488L146.17 18.9324L146.748 19.7488ZM146.748 21.3817L147.325 20.5653L146.748 21.3817ZM149.81 17.101L150.81 17.1371L149.81 17.101ZM149.388 17.8812L149.966 18.6976L149.388 17.8812ZM12.0683 -1C4.58794 -1 -1.35935 5.27904 -0.9537 12.7484L1.04336 12.6399C0.699916 6.31608 5.73513 1 12.0683 1V-1ZM137.944 -1H12.0683V1H137.944V-1ZM150.977 12.513C151.244 5.13041 145.332 -1 137.944 -1V1C144.199 1 149.205 6.19025 148.978 12.4407L150.977 12.513ZM150.81 17.1371L150.977 12.513L148.978 12.4407L148.811 17.0648L150.81 17.1371ZM147.325 20.5653L149.966 18.6976L148.811 17.0648L146.17 18.9324L147.325 20.5653ZM149.924 22.4032L147.325 20.5653L146.17 22.1981L148.769 24.036L149.924 22.4032ZM150.995 30.5053L150.768 23.9664L148.769 24.036L148.996 30.5749L150.995 30.5053ZM137.962 44C145.342 44 151.252 37.8811 150.995 30.5053L148.996 30.5749C149.214 36.8195 144.21 42 137.962 42V44ZM12.0415 44H137.962V42H12.0415V44ZM-0.981931 30.279C-1.37129 37.7384 4.57198 44 12.0415 44V42C5.71751 42 0.685701 36.6987 1.01535 30.3833L-0.981931 30.279ZM-0.64738 23.8698L-0.981931 30.279L1.01535 30.3833L1.3499 23.974L-0.64738 23.8698ZM2.70582 20.5652L0.194951 22.3412L1.3499 23.974L3.86077 22.198L2.70582 20.5652ZM0.131243 18.7441L2.70582 20.5652L3.86077 18.9324L1.28619 17.1113L0.131243 18.7441ZM-0.9537 12.7484L-0.710864 17.2197L1.28619 17.1113L1.04336 12.6399L-0.9537 12.7484ZM1.28619 17.1113L1.28619 17.1113L-0.710864 17.2197C-0.677732 17.8298 -0.367559 18.3913 0.131243 18.7441L1.28619 17.1113ZM3.86077 22.198C4.9875 21.401 4.98751 19.7293 3.86077 18.9324L2.70582 20.5652L2.70582 20.5652L3.86077 22.198ZM1.3499 23.974L1.3499 23.974L0.194951 22.3412C-0.305058 22.6949 -0.615455 23.2582 -0.64738 23.8698L1.3499 23.974ZM148.769 24.036L148.769 24.036L150.768 23.9664C150.746 23.3422 150.434 22.7639 149.924 22.4032L148.769 24.036ZM146.17 18.9324C145.044 19.7294 145.044 21.4011 146.17 22.1981L147.325 20.5653L147.325 20.5653L146.17 18.9324ZM148.811 17.0648L148.811 17.0648L149.966 18.6976C150.475 18.3374 150.787 17.7604 150.81 17.1371L148.811 17.0648Z" fill="url(#paint2_linear_1_4816)" mask="url(#path-1-inside-1_1_4816)"/>
<defs>
<linearGradient id="paint0_linear_1_4816" x1="70.6585" y1="-10.4782" x2="123.982" y2="28.0834" gradientUnits="userSpaceOnUse">
<stop stop-color="#E6A64D"/>
<stop offset="1" stop-color="#FFE891"/>
</linearGradient>
<linearGradient id="paint1_linear_1_4816" x1="75.0016" y1="0" x2="75.0016" y2="43" gradientUnits="userSpaceOnUse">
<stop stop-color="#4A384A"/>
<stop offset="1" stop-color="#4F4659"/>
</linearGradient>
<linearGradient id="paint2_linear_1_4816" x1="70.6822" y1="-6.39189" x2="120.52" y2="33.094" gradientUnits="userSpaceOnUse">
<stop stop-color="#C6873A"/>
<stop offset="0.451042" stop-color="#F3D780"/>
<stop offset="1" stop-color="#BA842C"/>
</linearGradient>
</defs>
</svg>