<svg width="58" height="15" viewBox="0 0 58 15" fill="none" xmlns="http://www.w3.org/2000/svg">
<path d="M12.7634 3.58251C13.9298 4.79887 15.1628 6.49844 16.5958 7.28158C16.5791 7.29824 16.6124 7.26492 16.5958 7.28158C16.6124 7.29824 16.5791 7.26492 16.5958 7.28158C15.1628 8.06472 13.9131 9.76431 12.7634 10.9807C11.0305 12.8136 9.3809 14.5298 7.08147 14.5298C5.5985 14.5298 4.33214 13.5967 3.88225 12.1304C3.39903 10.5808 3.96557 8.98116 5.34856 8.01474L5.78178 7.81479C5.39854 7.78147 4.99864 7.79812 4.6154 7.84811C4.31548 7.88144 4.01555 7.94809 3.71562 8.01474C2.33263 8.48129 1.0163 9.59768 -0.000110626 10.6641C0.266489 9.86428 0.399773 8.36465 0.399773 7.26492C0.399773 6.16519 0.266489 4.6489 -0.000110626 3.86576C0.999641 4.9155 2.31597 6.04856 3.71562 6.51511C3.99889 6.58176 4.29882 6.64841 4.59875 6.68173C4.99865 6.73172 5.38188 6.73172 5.78178 6.69839L5.34856 6.51511C3.98223 5.56534 3.39903 3.94909 3.88225 2.39947C4.33214 0.949827 5.5985 5.91278e-05 7.08147 5.91278e-05C9.3809 0.0333843 11.0305 1.74963 12.7634 3.58251Z" fill="url(#paint0_linear_1760_7709)"/>
<path d="M44.4378 3.58251C43.2714 4.79887 42.0384 6.49844 40.6054 7.28158C40.6221 7.29824 40.5887 7.26492 40.6054 7.28158C40.5887 7.29824 40.6221 7.26492 40.6054 7.28158C42.0384 8.06472 43.2881 9.76431 44.4378 10.9807C46.1707 12.8136 47.8203 14.5298 50.1197 14.5298C51.6027 14.5298 52.869 13.5967 53.3189 12.1304C53.8021 10.5808 53.2356 8.98116 51.8526 8.01474L51.4194 7.81479C51.8026 7.78147 52.2025 7.79812 52.5858 7.84811C52.8857 7.88144 53.1856 7.94809 53.4855 8.01474C54.8685 8.48129 56.1849 9.59768 57.2013 10.6641C56.9347 9.86428 56.8014 8.36465 56.8014 7.26492C56.8014 6.16519 56.9347 4.6489 57.2013 3.86576C56.2015 4.9155 54.8852 6.04856 53.4855 6.51511C53.2023 6.58176 52.9024 6.64841 52.6024 6.68173C52.2025 6.73172 51.8193 6.73172 51.4194 6.69839L51.8526 6.51511C53.2189 5.56534 53.8021 3.94909 53.3189 2.39947C52.869 0.949827 51.6027 5.91278e-05 50.1197 5.91278e-05C47.8203 0.0333843 46.1707 1.74963 44.4378 3.58251Z" fill="url(#paint1_linear_1760_7709)"/>
<defs>
<linearGradient id="paint0_linear_1760_7709" x1="16.6006" y1="7.26492" x2="-0.000110626" y2="7.26492" gradientUnits="userSpaceOnUse">
<stop stop-color="#831821"/>
</linearGradient>
<linearGradient id="paint1_linear_1760_7709" x1="40.6006" y1="7.26492" x2="57.2013" y2="7.26492" gradientUnits="userSpaceOnUse">
<stop stop-color="#831821"/>
</linearGradient>
</defs>
</svg>