<svg width="151" height="43" viewBox="0 0 151 43" fill="none" xmlns="http://www.w3.org/2000/svg">
<mask id="path-1-inside-1_1_4824" fill="white">
<path fill-rule="evenodd" clip-rule="evenodd" d="M0.0448284 12.6941C-0.329718 5.79756 5.16153 0 12.0683 0H137.944C144.765 0 150.224 5.66033 149.978 12.4768L149.814 17C149.8 17.3753 149.612 17.7227 149.306 17.9395L146.984 19.5822C146.305 20.062 146.305 21.0685 146.984 21.5483L149.264 23.1612C149.571 23.3783 149.759 23.7265 149.772 24.1023L149.996 30.5401C150.233 37.3503 144.776 43 137.962 43H12.0415C5.14474 43 -0.342796 37.2185 0.0167094 30.3312L0.346101 24.0207C0.365322 23.6525 0.552199 23.3134 0.853233 23.1005L3.04771 21.5482C3.72607 21.0684 3.72607 20.062 3.04771 19.5821L0.789308 17.9847C0.489 17.7723 0.302259 17.4342 0.282311 17.0669L0.0448284 12.6941Z"/>
</mask>
<path fill-rule="evenodd" clip-rule="evenodd" d="M0.0448284 12.6941C-0.329718 5.79756 5.16153 0 12.0683 0H137.944C144.765 0 150.224 5.66033 149.978 12.4768L149.814 17C149.8 17.3753 149.612 17.7227 149.306 17.9395L146.984 19.5822C146.305 20.062 146.305 21.0685 146.984 21.5483L149.264 23.1612C149.571 23.3783 149.759 23.7265 149.772 24.1023L149.996 30.5401C150.233 37.3503 144.776 43 137.962 43H12.0415C5.14474 43 -0.342796 37.2185 0.0167094 30.3312L0.346101 24.0207C0.365322 23.6525 0.552199 23.3134 0.853233 23.1005L3.04771 21.5482C3.72607 21.0684 3.72607 20.062 3.04771 19.5821L0.789308 17.9847C0.489 17.7723 0.302259 17.4342 0.282311 17.0669L0.0448284 12.6941Z" fill="url(#paint0_linear_1_4824)"/>
<path d="M0.0448284 12.6941L-1.15752 12.7594L-1.15752 12.7594L0.0448284 12.6941ZM149.978 12.4768L148.774 12.4333L148.774 12.4333L149.978 12.4768ZM149.996 30.5401L151.199 30.4982L151.199 30.4982L149.996 30.5401ZM0.0167094 30.3312L1.21919 30.3939L0.0167094 30.3312ZM0.789308 17.9847L0.0939616 18.9677L0.789308 17.9847ZM3.04771 21.5482L3.74305 22.5313L3.04771 21.5482ZM3.04771 19.5821L2.35236 20.5652L3.04771 19.5821ZM0.346101 24.0207L-0.856378 23.958L0.346101 24.0207ZM0.853233 23.1005L1.54858 24.0835L0.853233 23.1005ZM149.264 23.1612L149.959 22.1781L149.264 23.1612ZM149.772 24.1023L148.568 24.1442L149.772 24.1023ZM146.984 19.5822L146.288 18.5992L146.984 19.5822ZM146.984 21.5483L146.288 22.5314L146.984 21.5483ZM149.814 17L151.017 17.0436L149.814 17ZM149.306 17.9395L150.001 18.9226L149.306 17.9395ZM12.0683 -1.20412C4.47086 -1.20412 -1.56952 5.1732 -1.15752 12.7594L1.24717 12.6288C0.910081 6.42192 5.85221 1.20412 12.0683 1.20412V-1.20412ZM137.944 -1.20412H12.0683V1.20412H137.944V-1.20412ZM151.181 12.5204C151.452 5.02225 145.447 -1.20412 137.944 -1.20412V1.20412C144.083 1.20412 148.996 6.29841 148.774 12.4333L151.181 12.5204ZM151.017 17.0436L151.181 12.5204L148.774 12.4333L148.611 16.9565L151.017 17.0436ZM147.679 20.5653L150.001 18.9226L148.611 16.9565L146.288 18.5992L147.679 20.5653ZM149.959 22.1781L147.679 20.5653L146.288 22.5314L148.568 24.1442L149.959 22.1781ZM151.199 30.4982L150.975 24.0605L148.568 24.1442L148.792 30.582L151.199 30.4982ZM137.962 44.2041C145.458 44.2041 151.46 37.9894 151.199 30.4982L148.792 30.582C149.006 36.7111 144.095 41.7959 137.962 41.7959V44.2041ZM12.0415 44.2041H137.962V41.7959H12.0415V44.2041ZM-1.18577 30.2684C-1.58123 37.8445 4.45507 44.2041 12.0415 44.2041V41.7959C5.83442 41.7959 0.895633 36.5926 1.21919 30.3939L-1.18577 30.2684ZM-0.856378 23.958L-1.18577 30.2684L1.21919 30.3939L1.54858 24.0835L-0.856378 23.958ZM2.35236 20.5652L0.157887 22.1174L1.54858 24.0835L3.74305 22.5313L2.35236 20.5652ZM0.0939616 18.9677L2.35236 20.5652L3.74305 18.5991L1.48465 17.0016L0.0939616 18.9677ZM-1.15752 12.7594L-0.920033 17.1322L1.48466 17.0016L1.24717 12.6288L-1.15752 12.7594ZM1.48465 17.0016L1.48466 17.0016L-0.920033 17.1322C-0.880138 17.8668 -0.506654 18.5429 0.0939616 18.9677L1.48465 17.0016ZM3.74305 22.5313C5.09977 21.5716 5.09977 19.5587 3.74305 18.5991L2.35236 20.5652L2.35236 20.5652L3.74305 22.5313ZM1.54858 24.0835L1.54858 24.0835L0.157887 22.1174C-0.444182 22.5433 -0.817936 23.2215 -0.856378 23.958L1.54858 24.0835ZM148.568 24.1442L148.568 24.1442L150.975 24.0605C150.949 23.3088 150.573 22.6125 149.959 22.1781L148.568 24.1442ZM146.288 18.5992C144.931 19.5588 144.931 21.5717 146.288 22.5314L147.679 20.5653L147.679 20.5653L146.288 18.5992ZM148.611 16.9565L148.611 16.9565L150.001 18.9226C150.614 18.4889 150.99 17.7941 151.017 17.0436L148.611 16.9565Z" fill="url(#paint1_linear_1_4824)" mask="url(#path-1-inside-1_1_4824)"/>
<defs>
<linearGradient id="paint0_linear_1_4824" x1="-18.3683" y1="-8.36107" x2="155.334" y2="23.682" gradientUnits="userSpaceOnUse">
<stop stop-color="#A96A14"/>
<stop offset="0.26875" stop-color="#E6A64D"/>
<stop offset="0.638542" stop-color="#FFE891"/>
<stop offset="1" stop-color="#BB842A"/>
</linearGradient>
<linearGradient id="paint1_linear_1_4824" x1="70.6822" y1="-6.39189" x2="120.52" y2="33.094" gradientUnits="userSpaceOnUse">
<stop stop-color="#C6873A"/>
<stop offset="0.451042" stop-color="#F3D780"/>
<stop offset="1" stop-color="#BA842C"/>
</linearGradient>
</defs>
</svg>