<svg width="306" height="56" viewBox="0 0 306 56" fill="none" xmlns="http://www.w3.org/2000/svg">
<g style="mix-blend-mode:overlay">
<path d="M28.3785 1.0136L1 28.3921L28.3785 55.7706L55.757 28.3921L28.3785 1.0136Z" stroke="#E48B05" stroke-width="0.284075" stroke-miterlimit="10"/>
<path d="M69.9898 0.99993L42.6113 28.3784L69.9898 55.7569L97.3683 28.3784L69.9898 0.99993Z" stroke="#E48B05" stroke-width="0.284075" stroke-miterlimit="10"/>
<path d="M111.581 1.00823L84.2021 28.3867L111.581 55.7652L138.959 28.3867L111.581 1.00823Z" stroke="#E48B05" stroke-width="0.284075" stroke-miterlimit="10"/>
<path d="M153.174 1.01556L125.796 28.394L153.174 55.7725L180.553 28.394L153.174 1.01556Z" stroke="#E48B05" stroke-width="0.284075" stroke-miterlimit="10"/>
<path d="M194.784 1.00286L167.405 28.3813L194.784 55.7598L222.162 28.3814L194.784 1.00286Z" stroke="#E48B05" stroke-width="0.284075" stroke-miterlimit="10"/>
<path d="M236.375 1.01067L208.996 28.3892L236.375 55.7676L263.753 28.3892L236.375 1.01067Z" stroke="#E48B05" stroke-width="0.284075" stroke-miterlimit="10"/>
<path d="M277.966 1.01701L250.588 28.3955L277.966 55.774L305.345 28.3955L277.966 1.01701Z" stroke="#E48B05" stroke-width="0.284075" stroke-miterlimit="10"/>
<path d="M28.3762 9.24827L9.2334 28.3911L28.3762 47.534L47.5191 28.3911L28.3762 9.24827Z" stroke="#E48B05" stroke-width="0.284075" stroke-miterlimit="10"/>
<path d="M69.9697 9.25559L50.8269 28.3984L69.9697 47.5413L89.1126 28.3984L69.9697 9.25559Z" stroke="#E48B05" stroke-width="0.284075" stroke-miterlimit="10"/>
<path d="M111.581 9.24387L92.4382 28.3867L111.581 47.5296L130.724 28.3867L111.581 9.24387Z" stroke="#E48B05" stroke-width="0.284075" stroke-miterlimit="10"/>
<path d="M153.17 9.2512L134.027 28.394L153.17 47.5369L172.313 28.394L153.17 9.2512Z" stroke="#E48B05" stroke-width="0.284075" stroke-miterlimit="10"/>
<path d="M194.784 9.23851L175.641 28.3813L194.784 47.5242L213.927 28.3814L194.784 9.23851Z" stroke="#E48B05" stroke-width="0.284075" stroke-miterlimit="10"/>
<path d="M236.373 9.24582L217.23 28.3887L236.373 47.5315L255.516 28.3887L236.373 9.24582Z" stroke="#E48B05" stroke-width="0.284075" stroke-miterlimit="10"/>
<path d="M277.966 9.25267L258.823 28.3955L277.966 47.5384L297.109 28.3955L277.966 9.25267Z" stroke="#E48B05" stroke-width="0.284075" stroke-miterlimit="10"/>
<g opacity="0.61">
<path d="M239.864 26.0414C238.898 26.0414 237.989 26.5812 237.563 27.4334C237.279 27.7459 236.852 27.8879 236.455 27.9732C236.568 27.405 236.71 26.8937 237.108 26.5812C237.989 26.1835 238.557 25.3029 238.557 24.3654C238.557 23.7404 238.301 23.1439 237.847 22.6894C237.364 22.2064 236.71 21.9224 236 21.9224C234.58 21.9224 233.444 23.0303 233.444 24.3654C233.444 25.3029 234.012 26.1551 234.892 26.5528C235.233 26.78 235.404 27.3482 235.546 27.9448C235.176 27.8595 234.722 27.7175 234.438 27.405C234.012 26.5812 233.103 26.013 232.137 26.013C230.716 26.013 229.58 27.1209 229.58 28.4561C229.58 29.8196 230.745 30.8991 232.137 30.8991C233.074 30.8991 234.012 30.331 234.466 29.5356C234.495 29.4788 234.523 29.4219 234.58 29.3651C234.608 29.3367 234.637 29.3083 234.665 29.3083C235.091 28.9958 235.688 29.3651 235.659 29.8765C235.659 30.1321 235.631 30.3878 235.574 30.5582C235.574 30.5866 235.546 30.6435 235.546 30.6719C235.034 32.0354 233.813 33.5978 233.159 34.1376L233.273 34.2512C234.154 33.5126 237.847 33.5126 238.727 34.2512L238.841 34.1376C238.131 33.5694 236.852 31.865 236.426 30.6719C236.426 30.6435 236.398 30.6151 236.398 30.5866C236.341 30.3878 236.341 30.1321 236.313 29.8765C236.284 29.3083 236.966 28.9674 237.392 29.3651C237.421 29.3935 237.449 29.4219 237.449 29.4219C237.875 30.2742 238.869 30.8991 239.835 30.8991C241.256 30.8991 242.392 29.7912 242.392 28.4561C242.42 27.1209 241.284 26.0414 239.864 26.0414Z" fill="#E48B05"/>
<path d="M280.088 25.1041C279.264 24.3087 278.128 23.4849 277.588 22.519C277.049 23.4849 275.912 24.3371 275.088 25.1041C273.867 26.2688 272.674 27.3767 272.674 28.9391C272.674 29.9618 273.299 30.7856 274.293 31.0981C275.344 31.439 276.424 31.0413 277.077 30.1038L277.219 29.8198C277.247 30.0754 277.247 30.3595 277.191 30.6152C277.162 30.814 277.134 30.9845 277.077 31.1833C277.077 31.2117 277.049 31.2401 277.049 31.2685C276.907 31.6663 276.679 32.064 276.424 32.4333C276.111 32.8878 276.424 33.5127 276.992 33.4843C277.191 33.4843 277.418 33.4559 277.588 33.4559C277.759 33.4559 277.986 33.4559 278.185 33.4843C278.753 33.5127 279.066 32.8878 278.753 32.4333C278.497 32.064 278.27 31.6663 278.128 31.2685C278.128 31.2401 278.1 31.2117 278.1 31.1833C278.043 31.0129 278.014 30.814 277.986 30.6436C277.958 30.3879 277.958 30.1038 277.986 29.8482L278.1 30.1322C278.753 31.0697 279.833 31.439 280.884 31.1265C281.878 30.814 282.503 29.9618 282.503 28.9675C282.503 27.3767 281.338 26.2688 280.088 25.1041Z" fill="#E48B05"/>
<path d="M115.297 24.2804C115.24 24.252 115.183 24.252 115.126 24.252C115.098 24.252 115.069 24.252 115.069 24.252C115.041 24.252 114.984 24.252 114.956 24.2236C114.927 24.2236 114.899 24.2236 114.87 24.2236C114.842 24.2236 114.785 24.2236 114.757 24.2236C114.728 24.2236 114.7 24.2236 114.672 24.2236C114.643 24.2236 114.615 24.2236 114.558 24.2236C114.53 24.2236 114.501 24.2236 114.473 24.2236C114.444 24.2236 114.387 24.2236 114.359 24.2236C114.331 24.2236 114.302 24.2236 114.245 24.252C114.217 24.252 114.16 24.252 114.132 24.2804C114.103 24.2804 114.075 24.3088 114.018 24.3088C113.99 24.3088 113.933 24.3372 113.905 24.3372C113.876 24.3372 113.848 24.3656 113.791 24.3656C113.763 24.3656 113.706 24.394 113.677 24.394C113.649 24.394 113.62 24.4224 113.564 24.4224C113.535 24.4508 113.478 24.4508 113.45 24.4792C113.422 24.5076 113.393 24.5077 113.365 24.5361C113.336 24.5645 113.28 24.5645 113.251 24.5929C113.223 24.6213 113.194 24.6213 113.166 24.6497C113.138 24.6781 113.109 24.7065 113.052 24.7065C113.024 24.7349 112.995 24.7633 112.967 24.7633C112.939 24.7917 112.91 24.8201 112.853 24.8485C112.825 24.8769 112.797 24.9054 112.768 24.9338C112.74 24.9622 112.711 24.9906 112.655 25.019C112.626 25.0474 112.598 25.0758 112.569 25.1042C112.541 25.1326 112.513 25.161 112.484 25.2178C112.456 25.2462 112.427 25.2747 112.399 25.3315C112.371 25.3599 112.342 25.4167 112.314 25.4451C112.285 25.4735 112.257 25.5303 112.229 25.5587C112.2 25.5871 112.2 25.6155 112.172 25.6439C111.376 24.2804 110.013 24.0531 109.104 24.2804C108.109 24.5361 107.144 25.3883 107.144 26.7802C107.144 28.4847 108.393 29.6778 109.7 30.9561C110.609 31.8368 111.575 32.7458 112.086 33.8537L112.172 34.0242L112.257 33.8537C112.768 32.7458 113.734 31.8368 114.643 30.9561C115.978 29.7062 117.228 28.4847 117.228 26.7802C117.285 25.3883 116.291 24.5076 115.297 24.2804Z" fill="#E48B05"/>
<path d="M70.1001 33.7401C69.1342 32.4618 67.2878 30.5869 65.981 29.6495C65.6401 29.3938 65.6401 28.8541 65.981 28.5984C67.2593 27.6609 69.1342 25.786 70.0717 24.4793C70.3274 24.1384 70.8671 24.1384 71.1228 24.4793C71.6341 25.1611 72.3727 25.9565 73.0261 26.6099C73.7078 27.2916 74.5317 28.0302 75.2134 28.5416C75.5543 28.7972 75.5827 29.337 75.2419 29.5926C73.9635 30.5301 72.0886 32.405 71.1512 33.7117C70.8955 34.081 70.3558 34.081 70.1001 33.7401Z" fill="#E48B05"/>
<path d="M31.4943 26.0699C30.6705 25.2745 29.5342 24.4507 28.9945 23.4849C28.4547 24.4507 27.3184 25.3029 26.4946 26.0699C25.2731 27.2347 24.1084 28.3425 24.1084 29.905C24.1084 30.9276 24.7334 31.7514 25.7276 32.0639C26.7787 32.4048 27.8582 32.0071 28.5116 31.0697L28.6536 30.7856C28.682 31.0413 28.682 31.3253 28.6252 31.581C28.5968 31.7798 28.5684 31.9503 28.5116 32.1491C28.5116 32.1776 28.4832 32.206 28.4832 32.2344C28.3411 32.6321 28.1139 33.0298 27.8582 33.3991C27.5457 33.8536 27.8582 34.4786 28.4263 34.4502C28.6252 34.4502 28.824 34.4217 29.0229 34.4217C29.2217 34.4217 29.4206 34.4217 29.6195 34.4502C30.1592 34.4786 30.5001 33.8536 30.1876 33.3991C29.9319 33.0298 29.7047 32.6321 29.5626 32.2344C29.5626 32.206 29.5342 32.1776 29.5342 32.1491C29.4774 31.9787 29.449 31.7798 29.4206 31.6094C29.3922 31.3537 29.3922 31.0697 29.4206 30.814L29.5342 31.0981C30.1876 32.0355 31.2671 32.4048 32.3182 32.0923C33.284 31.7798 33.9374 30.9276 33.9374 29.9334C33.909 28.371 32.7443 27.2631 31.4943 26.0699Z" fill="#E48B05"/>
<path d="M158.22 27.0073C157.254 27.0073 156.345 27.547 155.919 28.3992C155.635 28.7117 155.209 28.8538 154.811 28.939C154.925 28.3708 155.067 27.8595 155.465 27.547C156.345 27.1493 156.914 26.2687 156.914 25.3312C156.914 24.7063 156.658 24.1097 156.203 23.6552C155.72 23.1723 155.067 22.8882 154.357 22.8882C152.936 22.8882 151.8 23.9961 151.8 25.3312C151.8 26.2687 152.368 27.1209 153.249 27.5186C153.59 27.7459 153.76 28.314 153.902 28.9106C153.533 28.8253 153.079 28.6833 152.794 28.3708C152.368 27.547 151.459 26.9789 150.493 26.9789C149.073 26.9789 147.937 28.0868 147.937 29.4219C147.937 30.7855 149.101 31.8649 150.493 31.8649C151.431 31.8649 152.368 31.2968 152.823 30.5014C152.851 30.4446 152.88 30.3878 152.936 30.3309C152.965 30.3025 152.993 30.2741 153.022 30.2741C153.448 29.9616 154.044 30.3309 154.016 30.8423C154.016 31.0979 153.988 31.3536 153.931 31.5241C153.931 31.5525 153.902 31.6093 153.902 31.6377C153.391 33.0012 152.169 34.5637 151.516 35.1034L151.63 35.217C152.51 34.4784 156.203 34.4784 157.084 35.217L157.198 35.1034C156.487 34.5353 155.209 32.8308 154.783 31.6377C154.783 31.6093 154.755 31.5809 154.755 31.5525C154.698 31.3536 154.698 31.0979 154.669 30.8423C154.641 30.2741 155.323 29.9332 155.749 30.3309C155.777 30.3594 155.806 30.3878 155.806 30.3878C156.232 31.24 157.226 31.8649 158.192 31.8649C159.612 31.8649 160.749 30.7571 160.749 29.4219C160.777 28.1152 159.641 27.0073 158.22 27.0073Z" fill="#E48B05"/>
<path d="M198.445 26.0699C197.621 25.2745 196.485 24.4507 195.945 23.4849C195.405 24.4507 194.269 25.3029 193.445 26.0699C192.224 27.2347 191.031 28.3425 191.031 29.905C191.031 30.9276 191.655 31.7514 192.65 32.0639C193.701 32.4048 194.78 32.0071 195.434 31.0697L195.576 30.7856C195.604 31.0413 195.604 31.3253 195.547 31.581C195.519 31.7798 195.49 31.9503 195.434 32.1491C195.434 32.1776 195.405 32.206 195.405 32.2344C195.263 32.6321 195.036 33.0298 194.78 33.3991C194.468 33.8536 194.78 34.4786 195.348 34.4502C195.547 34.4502 195.775 34.4217 195.945 34.4217C196.115 34.4217 196.343 34.4217 196.542 34.4502C197.11 34.4786 197.422 33.8536 197.11 33.3991C196.854 33.0298 196.627 32.6321 196.485 32.2344C196.485 32.206 196.456 32.1776 196.456 32.1491C196.4 31.9787 196.371 31.7798 196.343 31.6094C196.314 31.3537 196.314 31.0697 196.343 30.814L196.456 31.0981C197.11 32.0355 198.189 32.4048 199.24 32.0923C200.235 31.7798 200.86 30.9276 200.86 29.9334C200.86 28.371 199.695 27.2631 198.445 26.0699Z" fill="#E48B05"/>
</g>
</g>
</svg>