<svg width="435" height="34" viewBox="0 0 435 34" fill="none" xmlns="http://www.w3.org/2000/svg">
<g style="mix-blend-mode:overlay">
<path d="M28.0445 11.1545C25.3877 11.1545 22.9417 12.6306 21.7819 14.9079C21.0228 15.7724 19.8631 16.152 18.7455 16.405C19.0618 14.8868 19.4625 13.4951 20.5168 12.6306C22.9206 11.5341 24.4599 9.17245 24.4599 6.64212C24.4599 4.91306 23.7851 3.28943 22.541 2.04535C21.2126 0.71693 19.4203 0 17.5015 0C13.6638 0 10.543 2.99423 10.543 6.66321C10.543 9.19354 12.1034 11.5552 14.4861 12.6306C15.4139 13.2632 15.8778 14.8024 16.2363 16.405C15.182 16.173 14.0012 15.7724 13.221 14.9079C12.0612 12.6306 9.61526 11.1545 6.9795 11.1545C3.14183 11.1545 0.0210861 14.1488 0 17.7967C0 21.4656 3.14183 24.4388 6.9795 24.4388C9.61526 24.4388 12.2721 22.7941 13.474 20.4535C14.2753 19.6101 15.2452 19.357 16.5948 19.104C16.7213 20.8963 16.6369 22.6676 16.3839 23.6797C15.0133 27.3908 11.6395 31.7767 9.80503 33.2739L10.1002 33.6323C12.5251 31.6502 22.4989 31.6502 24.9238 33.6323L25.219 33.2739C23.3001 31.6924 19.6944 26.9691 18.6612 23.7008C18.3238 22.3723 18.366 19.9264 18.3871 19.0829C19.6312 19.3149 20.7065 19.5468 21.55 20.4324C22.7519 22.773 25.4087 24.4177 28.0656 24.4177C31.9033 24.4177 35.024 21.4235 35.024 17.7756C35.024 14.1277 31.8822 11.1545 28.0445 11.1545Z" fill="white" fill-opacity="0.2"/>
<path d="M72.4302 11.1545C69.7734 11.1545 67.3274 12.6306 66.1677 14.9079C65.4086 15.7724 64.2488 16.152 63.1313 16.405C63.4476 14.8868 63.8482 13.4951 64.9025 12.6306C67.3063 11.5341 68.8456 9.17245 68.8456 6.64212C68.8456 4.91306 68.1709 3.28943 66.9268 2.04535C65.5983 0.71693 63.806 0 61.8872 0C58.0495 0 54.9288 2.99423 54.9288 6.66321C54.9288 9.19354 56.4892 11.5552 58.8719 12.6306C59.7997 13.2632 60.2636 14.8024 60.622 16.405C59.5677 16.173 58.3869 15.7724 57.6067 14.9079C56.447 12.6306 54.001 11.1545 51.3652 11.1545C47.5276 11.1545 44.4068 14.1488 44.3857 17.7967C44.3857 21.4656 47.5276 24.4388 51.3652 24.4388C54.001 24.4388 56.6578 22.7941 57.8598 20.4535C58.661 19.6101 59.631 19.357 60.9805 19.104C61.107 20.8963 61.0227 22.6676 60.7696 23.6797C59.399 27.3908 56.0253 31.7767 54.1908 33.2739L54.486 33.6323C56.9109 31.6502 66.8846 31.6502 69.3095 33.6323L69.6047 33.2739C67.6859 31.6924 64.0802 26.9691 63.0469 23.7008C62.7096 22.3723 62.7517 19.9264 62.7728 19.0829C64.0169 19.3149 65.0923 19.5468 65.9357 20.4324C67.1376 22.773 69.7945 24.4177 72.4513 24.4177C76.289 24.4177 79.4097 21.4235 79.4097 17.7756C79.4097 14.1277 76.2679 11.1545 72.4302 11.1545Z" fill="white" fill-opacity="0.2"/>
<path d="M116.817 11.1545C114.16 11.1545 111.714 12.6306 110.554 14.9079C109.795 15.7724 108.636 16.152 107.518 16.405C107.834 14.8868 108.235 13.4951 109.289 12.6306C111.693 11.5341 113.232 9.17245 113.232 6.64212C113.232 4.91306 112.558 3.28943 111.313 2.04535C109.985 0.71693 108.193 0 106.274 0C102.436 0 99.3155 2.99423 99.3155 6.66321C99.3155 9.19354 100.876 11.5552 103.259 12.6306C104.186 13.2632 104.65 14.8024 105.009 16.405C103.954 16.173 102.774 15.7724 101.993 14.9079C100.834 12.6306 98.3877 11.1545 95.752 11.1545C91.9143 11.1545 88.7935 14.1488 88.7725 17.7967C88.7725 21.4656 91.9143 24.4388 95.752 24.4388C98.3877 24.4388 101.045 22.7941 102.246 20.4535C103.048 19.6101 104.018 19.357 105.367 19.104C105.494 20.8963 105.409 22.6676 105.156 23.6797C103.786 27.3908 100.412 31.7767 98.5775 33.2739L98.8727 33.6323C101.298 31.6502 111.271 31.6502 113.696 33.6323L113.991 33.2739C112.073 31.6924 108.467 26.9691 107.434 23.7008C107.096 22.3723 107.138 19.9264 107.16 19.0829C108.404 19.3149 109.479 19.5468 110.322 20.4324C111.524 22.773 114.181 24.4177 116.838 24.4177C120.676 24.4177 123.796 21.4235 123.796 17.7756C123.796 14.1277 120.655 11.1545 116.817 11.1545Z" fill="white" fill-opacity="0.2"/>
<path d="M161.203 11.1545C158.546 11.1545 156.1 12.6306 154.94 14.9079C154.181 15.7724 153.021 16.152 151.904 16.405C152.22 14.8868 152.621 13.4951 153.675 12.6306C156.079 11.5341 157.618 9.17245 157.618 6.64212C157.618 4.91306 156.943 3.28943 155.699 2.04535C154.371 0.71693 152.578 0 150.66 0C146.822 0 143.701 2.99423 143.701 6.66321C143.701 9.19354 145.262 11.5552 147.644 12.6306C148.572 13.2632 149.036 14.8024 149.394 16.405C148.34 16.173 147.159 15.7724 146.379 14.9079C145.219 12.6306 142.773 11.1545 140.138 11.1545C136.3 11.1545 133.179 14.1488 133.158 17.7967C133.158 21.4656 136.3 24.4388 140.138 24.4388C142.773 24.4388 145.43 22.7941 146.632 20.4535C147.433 19.6101 148.403 19.357 149.753 19.104C149.879 20.8963 149.795 22.6676 149.542 23.6797C148.172 27.3908 144.798 31.7767 142.963 33.2739L143.258 33.6323C145.683 31.6502 155.657 31.6502 158.082 33.6323L158.377 33.2739C156.458 31.6924 152.853 26.9691 151.819 23.7008C151.482 22.3723 151.524 19.9264 151.545 19.0829C152.789 19.3149 153.865 19.5468 154.708 20.4324C155.91 22.773 158.567 24.4177 161.224 24.4177C165.061 24.4177 168.182 21.4235 168.182 17.7756C168.182 14.1277 165.04 11.1545 161.203 11.1545Z" fill="white" fill-opacity="0.2"/>
<path d="M205.589 11.1545C202.932 11.1545 200.486 12.6306 199.327 14.9079C198.568 15.7724 197.408 16.152 196.29 16.405C196.607 14.8868 197.007 13.4951 198.061 12.6306C200.465 11.5341 202.005 9.17245 202.005 6.64212C202.005 4.91306 201.33 3.28943 200.086 2.04535C198.757 0.71693 196.965 0 195.046 0C191.208 0 188.088 2.99423 188.088 6.66321C188.088 9.19354 189.648 11.5552 192.031 12.6306C192.959 13.2632 193.423 14.8024 193.781 16.405C192.727 16.173 191.546 15.7724 190.766 14.9079C189.606 12.6306 187.16 11.1545 184.524 11.1545C180.687 11.1545 177.566 14.1488 177.545 17.7967C177.545 21.4656 180.687 24.4388 184.524 24.4388C187.16 24.4388 189.817 22.7941 191.019 20.4535C191.82 19.6101 192.79 19.357 194.139 19.104C194.266 20.8963 194.182 22.6676 193.929 23.6797C192.558 27.3908 189.184 31.7767 187.35 33.2739L187.645 33.6323C190.07 31.6502 200.044 31.6502 202.468 33.6323L202.764 33.2739C200.845 31.6924 197.239 26.9691 196.206 23.7008C195.868 22.3723 195.911 19.9264 195.932 19.0829C197.176 19.3149 198.251 19.5468 199.095 20.4324C200.297 22.773 202.953 24.4177 205.61 24.4177C209.448 24.4177 212.569 21.4235 212.569 17.7756C212.569 14.1277 209.427 11.1545 205.589 11.1545Z" fill="white" fill-opacity="0.2"/>
<path d="M249.975 11.1545C247.318 11.1545 244.872 12.6306 243.713 14.9079C242.953 15.7724 241.794 16.152 240.676 16.405C240.992 14.8868 241.393 13.4951 242.447 12.6306C244.851 11.5341 246.391 9.17245 246.391 6.64212C246.391 4.91306 245.716 3.28943 244.472 2.04535C243.143 0.71693 241.351 0 239.432 0C235.594 0 232.474 2.99423 232.474 6.66321C232.474 9.19354 234.034 11.5552 236.417 12.6306C237.345 13.2632 237.808 14.8024 238.167 16.405C237.113 16.173 235.932 15.7724 235.152 14.9079C233.992 12.6306 231.546 11.1545 228.91 11.1545C225.072 11.1545 221.952 14.1488 221.931 17.7967C221.931 21.4656 225.072 24.4388 228.91 24.4388C231.546 24.4388 234.203 22.7941 235.405 20.4535C236.206 19.6101 237.176 19.357 238.525 19.104C238.652 20.8963 238.568 22.6676 238.315 23.6797C236.944 27.3908 233.57 31.7767 231.736 33.2739L232.031 33.6323C234.456 31.6502 244.43 31.6502 246.854 33.6323L247.15 33.2739C245.231 31.6924 241.625 26.9691 240.592 23.7008C240.254 22.3723 240.297 19.9264 240.318 19.0829C241.562 19.3149 242.637 19.5468 243.481 20.4324C244.683 22.773 247.339 24.4177 249.996 24.4177C253.834 24.4177 256.955 21.4235 256.955 17.7756C256.955 14.1277 253.813 11.1545 249.975 11.1545Z" fill="white" fill-opacity="0.2"/>
<path d="M294.362 11.1545C291.705 11.1545 289.259 12.6306 288.099 14.9079C287.34 15.7724 286.18 16.152 285.063 16.405C285.379 14.8868 285.78 13.4951 286.834 12.6306C289.238 11.5341 290.777 9.17245 290.777 6.64212C290.777 4.91306 290.102 3.28943 288.858 2.04535C287.53 0.71693 285.737 0 283.819 0C279.981 0 276.86 2.99423 276.86 6.66321C276.86 9.19354 278.421 11.5552 280.803 12.6306C281.731 13.2632 282.195 14.8024 282.553 16.405C281.499 16.173 280.318 15.7724 279.538 14.9079C278.378 12.6306 275.932 11.1545 273.297 11.1545C269.459 11.1545 266.338 14.1488 266.317 17.7967C266.317 21.4656 269.459 24.4388 273.297 24.4388C275.932 24.4388 278.589 22.7941 279.791 20.4535C280.592 19.6101 281.562 19.357 282.912 19.104C283.038 20.8963 282.954 22.6676 282.701 23.6797C281.33 27.3908 277.957 31.7767 276.122 33.2739L276.417 33.6323C278.842 31.6502 288.816 31.6502 291.241 33.6323L291.536 33.2739C289.617 31.6924 286.012 26.9691 284.978 23.7008C284.641 22.3723 284.683 19.9264 284.704 19.0829C285.948 19.3149 287.024 19.5468 287.867 20.4324C289.069 22.773 291.726 24.4177 294.383 24.4177C298.22 24.4177 301.341 21.4235 301.341 17.7756C301.341 14.1277 298.199 11.1545 294.362 11.1545Z" fill="white" fill-opacity="0.2"/>
<path d="M338.749 11.1545C336.092 11.1545 333.646 12.6306 332.486 14.9079C331.727 15.7724 330.567 16.152 329.45 16.405C329.766 14.8868 330.167 13.4951 331.221 12.6306C333.625 11.5341 335.164 9.17245 335.164 6.64212C335.164 4.91306 334.489 3.28943 333.245 2.04535C331.917 0.71693 330.124 0 328.206 0C324.368 0 321.247 2.99423 321.247 6.66321C321.247 9.19354 322.808 11.5552 325.19 12.6306C326.118 13.2632 326.582 14.8024 326.94 16.405C325.886 16.173 324.705 15.7724 323.925 14.9079C322.765 12.6306 320.319 11.1545 317.684 11.1545C313.846 11.1545 310.725 14.1488 310.704 17.7967C310.704 21.4656 313.846 24.4388 317.684 24.4388C320.319 24.4388 322.976 22.7941 324.178 20.4535C324.979 19.6101 325.949 19.357 327.299 19.104C327.425 20.8963 327.341 22.6676 327.088 23.6797C325.717 27.3908 322.344 31.7767 320.509 33.2739L320.804 33.6323C323.229 31.6502 333.203 31.6502 335.628 33.6323L335.923 33.2739C334.004 31.6924 330.399 26.9691 329.365 23.7008C329.028 22.3723 329.07 19.9264 329.091 19.0829C330.335 19.3149 331.411 19.5468 332.254 20.4324C333.456 22.773 336.113 24.4177 338.77 24.4177C342.607 24.4177 345.728 21.4235 345.728 17.7756C345.728 14.1277 342.586 11.1545 338.749 11.1545Z" fill="white" fill-opacity="0.2"/>
<path d="M383.134 11.1545C380.477 11.1545 378.032 12.6306 376.872 14.9079C376.113 15.7724 374.953 16.152 373.835 16.405C374.152 14.8868 374.552 13.4951 375.607 12.6306C378.01 11.5341 379.55 9.17245 379.55 6.64212C379.55 4.91306 378.875 3.28943 377.631 2.04535C376.302 0.71693 374.51 0 372.591 0C368.754 0 365.633 2.99423 365.633 6.66321C365.633 9.19354 367.193 11.5552 369.576 12.6306C370.504 13.2632 370.968 14.8024 371.326 16.405C370.272 16.173 369.091 15.7724 368.311 14.9079C367.151 12.6306 364.705 11.1545 362.069 11.1545C358.232 11.1545 355.111 14.1488 355.09 17.7967C355.09 21.4656 358.232 24.4388 362.069 24.4388C364.705 24.4388 367.362 22.7941 368.564 20.4535C369.365 19.6101 370.335 19.357 371.685 19.104C371.811 20.8963 371.727 22.6676 371.474 23.6797C370.103 27.3908 366.729 31.7767 364.895 33.2739L365.19 33.6323C367.615 31.6502 377.589 31.6502 380.014 33.6323L380.309 33.2739C378.39 31.6924 374.784 26.9691 373.751 23.7008C373.414 22.3723 373.456 19.9264 373.477 19.0829C374.721 19.3149 375.796 19.5468 376.64 20.4324C377.842 22.773 380.499 24.4177 383.155 24.4177C386.993 24.4177 390.114 21.4235 390.114 17.7756C390.114 14.1277 386.972 11.1545 383.134 11.1545Z" fill="white" fill-opacity="0.2"/>
<path d="M427.521 11.1545C424.864 11.1545 422.418 12.6306 421.258 14.9079C420.499 15.7724 419.34 16.152 418.222 16.405C418.538 14.8868 418.939 13.4951 419.993 12.6306C422.397 11.5341 423.936 9.17245 423.936 6.64212C423.936 4.91306 423.262 3.28943 422.018 2.04535C420.689 0.71693 418.897 0 416.978 0C413.14 0 410.02 2.99423 410.02 6.66321C410.02 9.19354 411.58 11.5552 413.963 12.6306C414.89 13.2632 415.354 14.8024 415.713 16.405C414.659 16.173 413.478 15.7724 412.698 14.9079C411.538 12.6306 409.092 11.1545 406.456 11.1545C402.618 11.1545 399.498 14.1488 399.477 17.7967C399.477 21.4656 402.618 24.4388 406.456 24.4388C409.092 24.4388 411.749 22.7941 412.951 20.4535C413.752 19.6101 414.722 19.357 416.071 19.104C416.198 20.8963 416.113 22.6676 415.86 23.6797C414.49 27.3908 411.116 31.7767 409.282 33.2739L409.577 33.6323C412.002 31.6502 421.975 31.6502 424.4 33.6323L424.696 33.2739C422.777 31.6924 419.171 26.9691 418.138 23.7008C417.8 22.3723 417.843 19.9264 417.864 19.0829C419.108 19.3149 420.183 19.5468 421.027 20.4324C422.228 22.773 424.885 24.4177 427.542 24.4177C431.38 24.4177 434.501 21.4235 434.501 17.7756C434.501 14.1277 431.359 11.1545 427.521 11.1545Z" fill="white" fill-opacity="0.2"/>
</g>
</svg>